<svg xmlns="http://www.w3.org/2000/svg" xmlns:xlink="http://www.w3.org/1999/xlink" width="500" zoomAndPan="magnify" viewBox="0 0 375 374.999991" height="500" preserveAspectRatio="xMidYMid meet" version="1.0"><defs><g/><clipPath id="329697b776"><path d="M 62.894531 62.894531 L 311.894531 62.894531 L 311.894531 311.894531 L 62.894531 311.894531 Z M 62.894531 62.894531 " clip-rule="nonzero"/></clipPath><clipPath id="eff0e47e4a"><path d="M 170.070312 170.308594 L 229.410156 170.308594 L 229.410156 184.558594 L 170.070312 184.558594 Z M 170.070312 170.308594 " clip-rule="nonzero"/></clipPath></defs><g clip-path="url(#329697b776)"><path fill="#ff3131" d="M 187.488281 312.082031 C 154.207031 312.082031 122.917969 299.121094 99.386719 275.589844 C 75.851562 252.058594 62.894531 220.769531 62.894531 187.488281 C 62.894531 154.207031 75.851562 122.917969 99.386719 99.386719 C 122.917969 75.851562 154.207031 62.894531 187.488281 62.894531 C 220.769531 62.894531 252.058594 75.851562 275.589844 99.386719 C 299.121094 122.917969 312.082031 154.207031 312.082031 187.488281 C 312.082031 220.769531 299.121094 252.058594 275.589844 275.589844 C 252.058594 299.121094 220.769531 312.082031 187.488281 312.082031 Z M 187.488281 63.917969 C 154.480469 63.917969 123.449219 76.773438 100.109375 100.109375 C 76.773438 123.449219 63.917969 154.480469 63.917969 187.488281 C 63.917969 220.496094 76.773438 251.527344 100.109375 274.863281 C 123.449219 298.203125 154.480469 311.058594 187.488281 311.058594 C 220.496094 311.058594 251.527344 298.203125 274.863281 274.863281 C 298.203125 251.527344 311.058594 220.496094 311.058594 187.488281 C 311.058594 154.480469 298.203125 123.449219 274.863281 100.109375 C 251.527344 76.773438 220.496094 63.917969 187.488281 63.917969 Z M 187.488281 63.917969 " fill-opacity="1" fill-rule="nonzero"/></g><path fill="#ff3131" d="M 187.488281 269.464844 C 142.285156 269.464844 105.511719 232.691406 105.511719 187.488281 C 105.511719 142.285156 142.285156 105.511719 187.488281 105.511719 C 232.691406 105.511719 269.464844 142.285156 269.464844 187.488281 C 269.464844 232.691406 232.691406 269.464844 187.488281 269.464844 Z M 187.488281 106.535156 C 142.851562 106.535156 106.535156 142.851562 106.535156 187.488281 C 106.535156 232.125 142.851562 268.441406 187.488281 268.441406 C 232.125 268.441406 268.441406 232.125 268.441406 187.488281 C 268.441406 142.851562 232.125 106.535156 187.488281 106.535156 Z M 187.488281 106.535156 " fill-opacity="1" fill-rule="nonzero"/><path fill="#000000" d="M 87.195312 187.488281 C 87.195312 189.117188 85.871094 190.441406 84.242188 190.441406 C 82.609375 190.441406 81.289062 189.117188 81.289062 187.488281 C 81.289062 185.855469 82.609375 184.535156 84.242188 184.535156 C 85.871094 184.535156 87.195312 185.855469 87.195312 187.488281 Z M 290.734375 184.535156 C 289.105469 184.535156 287.78125 185.855469 287.78125 187.488281 C 287.78125 189.117188 289.105469 190.441406 290.734375 190.441406 C 292.367188 190.441406 293.6875 189.117188 293.6875 187.488281 C 293.6875 185.855469 292.367188 184.535156 290.734375 184.535156 Z M 290.734375 184.535156 " fill-opacity="1" fill-rule="nonzero"/><g fill="#ff3131" fill-opacity="1"><g transform="translate(133.261916, 211.124986)"><g><path d="M 71.5625 -41.03125 L 71.5625 -25.125 C 69.675781 -16.425781 65.535156 -9.84375 59.140625 -5.375 C 52.742188 -0.90625 45.609375 1.328125 37.734375 1.328125 C 27.847656 1.328125 19.425781 -2.367188 12.46875 -9.765625 C 5.519531 -17.171875 2.046875 -26.109375 2.046875 -36.578125 C 2.046875 -47.234375 5.445312 -56.234375 12.25 -63.578125 C 19.0625 -70.921875 27.554688 -74.59375 37.734375 -74.59375 C 49.640625 -74.59375 59.050781 -70.414062 65.96875 -62.0625 L 55.046875 -50.078125 C 51.140625 -56.359375 45.695312 -59.5 38.71875 -59.5 C 33.5625 -59.5 29.160156 -57.257812 25.515625 -52.78125 C 21.878906 -48.3125 20.0625 -42.910156 20.0625 -36.578125 C 20.0625 -30.367188 21.878906 -25.054688 25.515625 -20.640625 C 29.160156 -16.234375 33.5625 -14.03125 38.71875 -14.03125 C 42.976562 -14.03125 46.691406 -15.316406 49.859375 -17.890625 C 53.023438 -20.460938 54.609375 -23.882812 54.609375 -28.15625 L 37.734375 -28.15625 L 37.734375 -41.03125 Z M 71.5625 -41.03125 "/></g></g></g><g fill="#000000" fill-opacity="1"><g transform="translate(178.719776, 236.030278)"><g><path d="M 0.625 -52.03125 L 0.625 -65.046875 L 46.359375 -65.046875 L 46.359375 -52.03125 L 30.90625 -52.03125 L 30.90625 0 L 16.078125 0 L 16.078125 -52.03125 Z M 0.625 -52.03125 "/></g></g></g><g fill="#000000" fill-opacity="1"><g transform="translate(213.508474, 235.241333)"><g><path d="M 14.1875 -47.1875 L 14.1875 0 L 3.4375 0 L 3.4375 -47.1875 Z M 14.1875 -47.1875 "/></g></g></g><g fill="#ff3131" fill-opacity="1"><g transform="translate(208.196256, 165.757008)"><g><path d="M 14 -16.625 C 16.53125 -16.570312 18.65625 -15.648438 20.375 -13.859375 C 22.101562 -12.078125 22.945312 -9.925781 22.90625 -7.40625 C 22.863281 -4.9375 21.945312 -2.832031 20.15625 -1.09375 C 18.375 0.632812 16.21875 1.472656 13.6875 1.421875 C 11.21875 1.378906 9.117188 0.460938 7.390625 -1.328125 C 5.671875 -3.117188 4.832031 -5.25 4.875 -7.71875 C 4.914062 -10.238281 5.828125 -12.363281 7.609375 -14.09375 C 9.398438 -15.820312 11.53125 -16.664062 14 -16.625 Z M 14 -16.625 "/></g></g></g><g clip-path="url(#eff0e47e4a)"><path fill="#000000" d="M 170.070312 170.308594 L 229.398438 170.308594 L 229.398438 184.558594 L 170.070312 184.558594 Z M 170.070312 170.308594 " fill-opacity="1" fill-rule="nonzero"/></g><path stroke-linecap="butt" transform="matrix(0.369986, 0.652388, -0.652388, 0.369986, 106.646789, 233.358133)" fill="none" stroke-linejoin="miter" d="M 1.457824 0.938007 L 6.031633 0.939294 L 6.032217 20.998141 L 1.462938 20.999424 Z M 1.457824 0.938007 " stroke="#522400" stroke-width="1.064407" stroke-opacity="1" stroke-miterlimit="4"/><path stroke-linecap="butt" transform="matrix(0.513352, 0.546781, -0.546781, 0.513352, 115.796459, 247.850374)" fill="none" stroke-linejoin="miter" d="M 6.033967 8.550523 L 6.032299 21.001104 L 1.459628 21.001588 L 1.460645 0.934796 L 6.02975 0.93811 L 14.009062 13.387592 L 14.053235 13.386199 L 14.054902 0.935618 L 18.63137 0.938699 L 18.630122 20.998129 L 14.053886 21.00241 L 6.078139 8.54913 Z M 6.033967 8.550523 " stroke="#522400" stroke-width="1.064407" stroke-opacity="1" stroke-miterlimit="4"/><path stroke-linecap="butt" transform="matrix(0.637051, 0.395811, -0.395811, 0.637051, 135.028853, 265.746429)" fill="none" stroke-linejoin="miter" d="M 13.065057 0.938552 L 13.062144 4.95054 L 6.035216 4.950672 L 6.034581 8.936719 L 12.521022 8.935153 L 12.525283 12.948817 L 6.031668 12.948707 L 6.030739 21.000301 L 1.462244 20.999777 L 1.46246 0.936485 Z M 13.065057 0.938552 " stroke="#522400" stroke-width="1.064407" stroke-opacity="1" stroke-miterlimit="4"/><path stroke-linecap="butt" transform="matrix(0.718587, 0.214785, -0.214785, 0.718587, 153.90477, 276.161437)" fill="none" stroke-linejoin="miter" d="M 0.558044 10.953505 C 0.559979 8.050095 1.549719 5.596165 3.52577 3.586725 C 5.506812 1.575794 7.891421 0.569492 10.674606 0.569311 C 13.479244 0.568153 15.86681 1.572293 17.824341 3.574732 C 19.786862 5.575679 20.767642 8.038584 20.76869 10.951975 C 20.772205 13.891809 19.803402 16.361225 17.873754 18.362231 C 15.944106 20.363237 13.546533 21.362541 10.676047 21.361637 C 7.741204 21.36366 5.323697 20.36847 3.416528 18.38903 C 1.511367 16.398117 0.559036 13.921273 0.558044 10.953505 Z M 5.49983 10.955006 C 5.499762 12.009613 5.662418 12.972094 5.986307 13.837459 C 6.311687 14.707814 6.873669 15.442217 7.683723 16.042674 C 8.492285 16.638142 9.489718 16.937972 10.674531 16.937174 C 12.376667 16.939392 13.66384 16.353525 14.527561 15.187545 C 15.396272 14.020074 15.827723 12.608214 15.828395 10.955465 C 15.828552 9.319177 15.386479 7.91292 14.502176 6.736693 C 13.624356 5.563965 12.344358 4.973509 10.675146 4.972321 C 9.022397 4.971649 7.741706 5.561015 6.843053 6.737436 C 5.949391 7.912365 5.499986 9.318719 5.49983 10.955006 Z M 5.49983 10.955006 " stroke="#522400" stroke-width="1.064407" stroke-opacity="1" stroke-miterlimit="4"/><path stroke-linecap="butt" transform="matrix(0.749948, 0.00878861, -0.00878861, 0.749948, 180.239393, 282.212062)" fill="none" stroke-linejoin="miter" d="M 1.462756 0.939757 L 8.635116 0.939044 C 10.562311 0.937294 12.136137 1.450137 13.351447 2.482842 C 14.566696 3.510339 15.177738 4.982446 15.174097 6.894079 C 15.175745 8.368119 14.804819 9.606926 14.066467 10.60523 C 13.328115 11.603534 12.331031 12.302766 11.07001 12.702987 L 17.974974 20.997644 L 12.162079 20.998052 L 6.032351 13.074544 L 6.031498 21.002183 L 1.458223 20.998481 Z M 6.030905 9.839964 L 6.567388 9.838886 C 6.984087 9.839211 7.343376 9.829792 7.634901 9.815958 C 7.926365 9.796916 8.259065 9.740931 8.633002 9.648001 C 9.006877 9.549863 9.302145 9.410977 9.529221 9.23122 C 9.761505 9.051402 9.956356 8.788684 10.119044 8.448213 C 10.281733 8.107741 10.360239 7.695335 10.359771 7.210932 C 10.359303 6.726529 10.281508 6.310746 10.116094 5.974119 C 9.955827 5.632224 9.76008 5.374083 9.528793 5.194489 C 9.302714 5.014834 9.004211 4.877698 8.633224 4.777872 C 8.262237 4.678045 7.928256 4.624664 7.636365 4.60725 C 7.344474 4.589836 6.985002 4.583631 6.568302 4.583305 L 6.03182 4.584384 Z M 6.030905 9.839964 " stroke="#522400" stroke-width="1.064407" stroke-opacity="1" stroke-miterlimit="4"/><path stroke-linecap="butt" transform="matrix(0.722197, -0.202314, 0.202314, 0.722197, 204.287672, 281.220217)" fill="none" stroke-linejoin="miter" d="M 18.042997 20.997728 L 17.095178 9.108613 L 16.976413 9.107795 L 12.866277 20.883524 L 10.140487 20.882578 L 6.033931 9.109221 L 5.91015 9.106998 L 4.963537 21.000889 L 0.392667 21.002318 L 2.189929 0.935978 L 7.052697 0.935188 L 11.502335 12.507169 L 15.9555 0.935712 L 20.818268 0.934923 L 22.617477 21.00272 Z M 18.042997 20.997728 " stroke="#522400" stroke-width="1.064407" stroke-opacity="1" stroke-miterlimit="4"/><path stroke-linecap="butt" transform="matrix(0.633832, -0.400944, 0.400944, 0.633832, 230.852317, 271.904661)" fill="none" stroke-linejoin="miter" d="M 11.650872 0.938442 L 19.748289 20.999521 L 14.836897 20.99882 L 13.352026 16.984242 L 5.715506 16.985316 L 4.233977 21.003121 L -0.681816 20.999635 L 7.418561 0.935904 Z M 11.796462 12.974251 L 9.561262 7.13536 L 9.512127 7.135093 L 7.273745 12.972897 Z M 11.796462 12.974251 " stroke="#522400" stroke-width="1.064407" stroke-opacity="1" stroke-miterlimit="4"/><path stroke-linecap="butt" transform="matrix(0.505829, -0.553748, 0.553748, 0.505829, 251.455301, 256.948606)" fill="none" stroke-linejoin="miter" d="M 8.852542 0.572143 C 9.936523 0.569552 10.998467 0.728176 12.034861 1.044168 C 13.078613 1.360493 13.84978 1.671864 14.351875 1.982127 L 15.078264 2.46843 L 13.228708 6.111951 C 13.081693 6.02051 12.877142 5.896975 12.615058 5.741344 C 12.360332 5.586047 11.875653 5.379797 11.161022 5.122595 C 10.450237 4.861881 9.785301 4.728585 9.165884 4.730065 C 8.406328 4.732581 7.820225 4.894093 7.403731 5.218112 C 6.994595 5.542464 6.78683 5.979148 6.787792 6.528497 C 6.786351 6.804928 6.881564 7.06361 7.07761 7.293673 C 7.273323 7.531094 7.601151 7.781862 8.071963 8.050157 C 8.546622 8.31494 8.960898 8.529065 9.314794 8.692534 C 9.672534 8.852491 10.221773 9.098526 10.966687 9.41977 C 12.265018 9.976178 13.370077 10.730296 14.285709 11.678611 C 15.205188 12.623414 15.661803 13.694748 15.662915 14.892947 C 15.662178 16.05051 15.45471 17.051259 15.039844 17.909911 C 14.62849 18.772408 14.059731 19.447143 13.337411 19.930603 C 12.614758 20.42142 11.817154 20.776131 10.943936 21.009449 C 10.066871 21.246281 9.121549 21.362054 8.100279 21.363794 C 7.222993 21.360986 6.364415 21.270545 5.520702 21.095985 C 4.680835 20.917911 3.971898 20.697833 3.401584 20.428725 C 2.838627 20.159949 2.323332 19.897016 1.870416 19.64059 C 1.417832 19.376806 1.084828 19.158983 0.871736 18.979762 L 0.559291 18.714942 L 2.841758 14.873489 C 3.037286 15.033483 3.3044 15.240953 3.643098 15.4959 C 3.985642 15.747335 4.589753 16.08433 5.45543 16.506887 C 6.324953 16.925932 7.09342 17.133956 7.756987 17.134472 C 9.688822 17.133358 10.651078 16.480105 10.651777 15.16033 C 10.649373 14.887412 10.583593 14.630061 10.4429 14.398815 C 10.306052 14.164056 10.062344 13.928151 9.715289 13.694946 C 9.364722 13.457895 9.055974 13.274348 8.785865 13.133101 C 8.523115 12.992187 8.086431 12.784422 7.476146 12.502446 C 6.869706 12.216958 6.418638 12.001168 6.126456 11.858923 C 4.911394 11.254668 3.97206 10.504358 3.308455 9.607993 C 2.641336 8.707783 2.308996 7.741607 2.311767 6.702108 C 2.308509 4.899208 2.975918 3.428939 4.303123 2.287125 C 5.634174 1.141798 7.149476 0.568856 8.852542 0.572143 Z M 8.852542 0.572143 " stroke="#522400" stroke-width="1.064407" stroke-opacity="1" stroke-miterlimit="4"/><path stroke-linecap="butt" transform="matrix(0.369986, -0.652388, 0.652388, 0.369986, 266.271169, 238.251049)" fill="none" stroke-linejoin="miter" d="M 1.46032 0.935651 L 6.029599 0.936933 L 6.031586 21.000311 L 1.462307 20.999029 Z M 1.46032 0.935651 " stroke="#522400" stroke-width="1.064407" stroke-opacity="1" stroke-miterlimit="4"/><g fill="#594a47" fill-opacity="1"><g transform="translate(92.946639, 241.127841)"><g><path d="M 15.328125 -3.5 L 2.234375 3.921875 L 0.546875 0.953125 L 13.640625 -6.46875 Z M 15.328125 -3.5 "/></g></g></g><g fill="#594a47" fill-opacity="1"><g transform="translate(98.414257, 250.254839)"><g/></g></g><g fill="#594a47" fill-opacity="1"><g transform="translate(104.314064, 258.630776)"><g><path d="M 9.90625 -3.09375 L 3.09375 3.296875 L 0.75 0.796875 L 11.71875 -9.5 L 14.0625 -7 L 11.34375 3.75 L 11.375 3.78125 L 18.1875 -2.609375 L 20.53125 -0.109375 L 9.5625 10.1875 L 7.21875 7.6875 L 9.9375 -3.0625 Z M 9.90625 -3.09375 "/></g></g></g><g fill="#594a47" fill-opacity="1"><g transform="translate(118.725442, 272.91828)"><g/></g></g><g fill="#594a47" fill-opacity="1"><g transform="translate(126.716826, 279.124495)"><g><path d="M 16.265625 -7.609375 L 14.671875 -5.046875 L 10.171875 -7.828125 L 8.609375 -5.296875 L 12.75 -2.734375 L 11.15625 -0.171875 L 7.015625 -2.734375 L 3.828125 2.390625 L 0.921875 0.578125 L 8.859375 -12.203125 Z M 16.265625 -7.609375 "/></g></g></g><g fill="#594a47" fill-opacity="1"><g transform="translate(140.09307, 286.890421)"><g/></g></g><g fill="#594a47" fill-opacity="1"><g transform="translate(149.394286, 291.251766)"><g><path d="M 2.5625 -7.09375 C 3.1875 -9.175781 4.425781 -10.726562 6.28125 -11.75 C 8.132812 -12.769531 10.0625 -12.976562 12.0625 -12.375 C 14.070312 -11.78125 15.566406 -10.550781 16.546875 -8.6875 C 17.523438 -6.820312 17.703125 -4.84375 17.078125 -2.75 C 16.453125 -0.644531 15.226562 0.914062 13.40625 1.9375 C 11.59375 2.96875 9.65625 3.175781 7.59375 2.5625 C 5.476562 1.925781 3.953125 0.691406 3.015625 -1.140625 C 2.078125 -2.972656 1.925781 -4.957031 2.5625 -7.09375 Z M 6.109375 -6.03125 C 5.878906 -5.269531 5.785156 -4.539062 5.828125 -3.84375 C 5.867188 -3.15625 6.117188 -2.507812 6.578125 -1.90625 C 7.035156 -1.3125 7.691406 -0.882812 8.546875 -0.625 C 9.765625 -0.257812 10.8125 -0.398438 11.6875 -1.046875 C 12.5625 -1.703125 13.175781 -2.625 13.53125 -3.8125 C 13.882812 -4.988281 13.867188 -6.09375 13.484375 -7.125 C 13.097656 -8.164062 12.304688 -8.863281 11.109375 -9.21875 C 9.921875 -9.570312 8.878906 -9.421875 7.984375 -8.765625 C 7.085938 -8.117188 6.460938 -7.207031 6.109375 -6.03125 Z M 6.109375 -6.03125 "/></g></g></g><g fill="#594a47" fill-opacity="1"><g transform="translate(169.958487, 296.576046)"><g/></g></g><g fill="#594a47" fill-opacity="1"><g transform="translate(180.054832, 297.96098)"><g><path d="M 1.265625 -15.03125 L 6.640625 -14.96875 C 8.085938 -14.957031 9.265625 -14.554688 10.171875 -13.765625 C 11.078125 -12.984375 11.519531 -11.875 11.5 -10.4375 C 11.488281 -9.332031 11.203125 -8.410156 10.640625 -7.671875 C 10.078125 -6.929688 9.320312 -6.414062 8.375 -6.125 L 13.46875 0.15625 L 9.125 0.109375 L 4.578125 -5.890625 L 4.515625 0.046875 L 1.09375 0.015625 Z M 4.609375 -8.328125 L 5.015625 -8.3125 C 5.328125 -8.3125 5.59375 -8.3125 5.8125 -8.3125 C 6.03125 -8.320312 6.28125 -8.363281 6.5625 -8.4375 C 6.84375 -8.507812 7.070312 -8.609375 7.25 -8.734375 C 7.425781 -8.867188 7.570312 -9.0625 7.6875 -9.3125 C 7.8125 -9.570312 7.875 -9.882812 7.875 -10.25 C 7.882812 -10.613281 7.832031 -10.921875 7.71875 -11.171875 C 7.601562 -11.429688 7.457031 -11.628906 7.28125 -11.765625 C 7.113281 -11.898438 6.890625 -12.003906 6.609375 -12.078125 C 6.328125 -12.148438 6.078125 -12.195312 5.859375 -12.21875 C 5.640625 -12.238281 5.375 -12.25 5.0625 -12.25 L 4.65625 -12.265625 Z M 4.609375 -8.328125 "/></g></g></g><g fill="#594a47" fill-opacity="1"><g transform="translate(198.293904, 297.564728)"><g/></g></g><g fill="#594a47" fill-opacity="1"><g transform="translate(208.53626, 296.386362)"><g><path d="M 13.03125 -3.65625 L 9.9375 -12.046875 L 9.859375 -12.03125 L 9.25 -2.6875 L 7.296875 -2.140625 L 1.9375 -9.8125 L 1.859375 -9.796875 L 3.578125 -1 L 0.28125 -0.078125 L -2.484375 -14.921875 L 1.015625 -15.90625 L 6.59375 -8.453125 L 7.46875 -17.71875 L 10.96875 -18.6875 L 16.328125 -4.578125 Z M 13.03125 -3.65625 "/></g></g></g><g fill="#594a47" fill-opacity="1"><g transform="translate(229.976979, 289.475557)"><g/></g></g><g fill="#594a47" fill-opacity="1"><g transform="translate(239.272148, 285.215142)"><g><path d="M -0.671875 -17.390625 L 12.515625 -7.921875 L 9.40625 -5.953125 L 6.859375 -7.90625 L 2.015625 -4.828125 L 2.6875 -1.703125 L -0.4375 0.28125 L -3.34375 -15.6875 Z M 4.25 -9.8125 L 0.5 -12.609375 L 0.453125 -12.59375 L 1.390625 -8 Z M 4.25 -9.8125 "/></g></g></g><g fill="#594a47" fill-opacity="1"><g transform="translate(255.385489, 274.215027)"><g/></g></g><g fill="#594a47" fill-opacity="1"><g transform="translate(263.084002, 267.571024)"><g><path d="M -6.828125 -15.234375 C -6.285156 -15.828125 -5.660156 -16.332031 -4.953125 -16.75 C -4.253906 -17.164062 -3.691406 -17.441406 -3.265625 -17.578125 L -2.625 -17.734375 L -1.546875 -14.859375 C -1.671875 -14.816406 -1.84375 -14.757812 -2.0625 -14.6875 C -2.28125 -14.625 -2.644531 -14.460938 -3.15625 -14.203125 C -3.664062 -13.941406 -4.070312 -13.644531 -4.375 -13.3125 C -4.757812 -12.882812 -4.960938 -12.472656 -4.984375 -12.078125 C -5.015625 -11.691406 -4.875 -11.359375 -4.5625 -11.078125 C -4.414062 -10.941406 -4.226562 -10.863281 -4 -10.84375 C -3.769531 -10.832031 -3.460938 -10.890625 -3.078125 -11.015625 C -2.691406 -11.140625 -2.363281 -11.257812 -2.09375 -11.375 C -1.820312 -11.488281 -1.410156 -11.664062 -0.859375 -11.90625 C 0.0976562 -12.363281 1.070312 -12.601562 2.0625 -12.625 C 3.050781 -12.65625 3.878906 -12.367188 4.546875 -11.765625 C 5.179688 -11.179688 5.632812 -10.554688 5.90625 -9.890625 C 6.175781 -9.222656 6.257812 -8.566406 6.15625 -7.921875 C 6.0625 -7.273438 5.859375 -6.648438 5.546875 -6.046875 C 5.234375 -5.441406 4.816406 -4.859375 4.296875 -4.296875 C 3.859375 -3.816406 3.375 -3.382812 2.84375 -3 C 2.320312 -2.625 1.84375 -2.347656 1.40625 -2.171875 C 0.96875 -2.003906 0.5625 -1.859375 0.1875 -1.734375 C -0.1875 -1.609375 -0.476562 -1.53125 -0.6875 -1.5 L -0.984375 -1.46875 L -1.953125 -4.671875 C -1.753906 -4.691406 -1.5 -4.734375 -1.1875 -4.796875 C -0.882812 -4.867188 -0.398438 -5.035156 0.265625 -5.296875 C 0.941406 -5.554688 1.445312 -5.875 1.78125 -6.25 C 2.757812 -7.3125 2.882812 -8.175781 2.15625 -8.84375 C 2.007812 -8.976562 1.832031 -9.066406 1.625 -9.109375 C 1.414062 -9.160156 1.15625 -9.148438 0.84375 -9.078125 C 0.539062 -9.003906 0.285156 -8.925781 0.078125 -8.84375 C -0.117188 -8.769531 -0.453125 -8.632812 -0.921875 -8.4375 C -1.390625 -8.25 -1.738281 -8.109375 -1.96875 -8.015625 C -2.90625 -7.648438 -3.789062 -7.507812 -4.625 -7.59375 C -5.46875 -7.6875 -6.171875 -7.992188 -6.734375 -8.515625 C -7.734375 -9.421875 -8.210938 -10.53125 -8.171875 -11.84375 C -8.140625 -13.15625 -7.691406 -14.285156 -6.828125 -15.234375 Z M -6.828125 -15.234375 "/></g></g></g><g fill="#594a47" fill-opacity="1"><g transform="translate(274.411416, 254.331659)"><g/></g></g><g fill="#594a47" fill-opacity="1"><g transform="translate(279.971319, 246.020757)"><g><path d="M -10.859375 -11.34375 L 2.234375 -3.921875 L 0.546875 -0.953125 L -12.546875 -8.375 Z M -10.859375 -11.34375 "/></g></g></g><path stroke-linecap="butt" transform="matrix(0.200622, -0.768776, 0.768776, 0.200622, 78.277339, 162.379823)" fill="none" stroke-linejoin="miter" d="M 17.737178 8.831159 L 17.739592 12.773483 C 17.270466 14.928358 16.242626 16.558328 14.657313 17.66815 C 13.075517 18.771974 11.310414 19.329142 9.353523 19.326625 C 6.904153 19.325598 4.816254 18.41218 3.087345 16.576855 C 1.369192 14.743804 0.505658 12.525133 0.503982 9.929115 C 0.506647 7.291315 1.34704 5.059878 3.035915 3.237077 C 4.721276 1.420276 6.830939 0.508971 9.356632 0.510405 C 12.30324 0.508699 14.636872 1.545992 16.350289 3.61401 L 13.650078 6.584848 C 12.676565 5.035099 11.329363 4.253578 9.596685 4.253523 C 8.321945 4.25591 7.231753 4.80971 6.330865 5.913681 C 5.426462 7.02365 4.977535 8.360274 4.975811 9.930791 C 4.977394 11.475041 5.427381 12.790488 6.328254 13.886648 C 7.232644 14.97681 8.319829 15.521318 9.595811 15.523688 C 10.652337 15.522355 11.575632 15.205192 12.359697 14.568684 C 13.142521 13.927419 13.535645 13.077903 13.535553 12.026134 L 9.353504 12.025052 L 9.354052 8.833962 Z M 17.737178 8.831159 " stroke="#522400" stroke-width="0.963222" stroke-opacity="1" stroke-miterlimit="4"/><path stroke-linecap="butt" transform="matrix(0.370849, -0.702664, 0.702664, 0.370849, 86.865188, 136.393189)" fill="none" stroke-linejoin="miter" d="M 5.456849 0.841954 L 5.457191 15.367956 L 11.709571 15.364704 L 11.710291 19.000039 L 1.3211 19.001836 L 1.322333 0.844847 Z M 5.456849 0.841954 " stroke="#522400" stroke-width="0.963222" stroke-opacity="1" stroke-miterlimit="4"/><path stroke-linecap="butt" transform="matrix(0.524035, -0.597205, 0.597205, 0.524035, 98.573854, 116.781043)" fill="none" stroke-linejoin="miter" d="M 0.503328 9.906633 C 0.503811 7.283313 1.397949 5.059731 3.188985 3.239581 C 4.98002 1.419431 7.140025 0.511745 9.662515 0.509132 C 12.202123 0.511121 14.358661 1.418303 16.132128 3.230679 C 17.90929 5.039812 18.798572 7.268293 18.797183 9.905489 C 18.797678 12.567195 17.920207 14.802317 16.174949 16.615003 C 14.430144 18.42075 12.256262 19.32753 9.660695 19.328858 C 7.005928 19.329806 4.817489 18.430994 3.091684 16.635664 C 1.369574 14.837091 0.505708 12.592849 0.503328 9.906633 Z M 4.976659 9.905909 C 4.973377 10.863758 5.122136 11.733981 5.419241 12.51982 C 5.709407 13.305206 6.220016 13.969107 6.954313 14.515219 C 7.689062 15.054392 8.591319 15.322304 9.660632 15.325892 C 11.204005 15.325577 12.363686 14.798547 13.147068 13.738316 C 13.933692 12.68178 14.32364 11.404261 14.327095 9.909908 C 14.326401 8.425736 13.925017 7.155802 13.127091 6.089926 C 12.328713 5.030988 11.172166 4.495644 9.663484 4.498222 C 8.165435 4.498011 7.008996 5.028736 6.19741 6.094095 C 5.38258 7.155758 4.975512 8.428675 4.976659 9.905909 Z M 4.976659 9.905909 " stroke="#522400" stroke-width="0.963222" stroke-opacity="1" stroke-miterlimit="4"/><path stroke-linecap="butt" transform="matrix(0.652598, -0.453192, 0.453192, 0.652598, 118.595087, 96.71168)" fill="none" stroke-linejoin="miter" d="M 1.321004 0.844395 L 6.955026 0.842256 C 8.654341 0.843151 10.01265 1.205806 11.027147 1.934258 C 12.040411 2.655869 12.545866 3.832904 12.546317 5.461325 C 12.549909 7.28347 11.791506 8.58244 10.281989 9.359804 C 12.861867 9.81657 14.154443 11.342688 14.152876 13.93939 C 14.152542 15.46551 13.624655 16.691117 12.569217 17.616213 C 11.50974 18.538504 10.059451 18.997857 8.208701 18.999542 L 1.324057 19.001122 Z M 5.460325 7.9508 L 5.788993 7.951585 C 6.710946 7.951359 7.40272 7.791287 7.856236 7.465759 C 8.310987 7.147073 8.540605 6.618175 8.538249 5.880299 C 8.535667 4.651439 7.622687 4.035383 5.785622 4.034601 L 5.460993 4.03662 Z M 5.457083 15.807763 L 6.754032 15.810566 C 8.78482 15.808207 9.797296 15.134604 9.79707 13.781681 C 9.793255 12.976948 9.54378 12.396676 9.032157 12.047368 C 8.53018 11.692789 7.767064 11.516005 6.756494 11.514548 L 5.459545 11.511745 Z M 5.457083 15.807763 " stroke="#522400" stroke-width="0.963222" stroke-opacity="1" stroke-miterlimit="4"/><path stroke-linecap="butt" transform="matrix(0.740276, -0.288544, 0.288544, 0.740276, 139.567788, 83.857026)" fill="none" stroke-linejoin="miter" d="M 10.545338 0.841942 L 17.872965 19.000666 L 13.430291 18.999777 L 12.086193 15.367871 L 5.174745 15.365074 L 3.831902 18.999739 L -0.617138 19.001645 L 6.714383 0.842035 Z M 10.678198 11.737444 L 8.653907 6.452629 L 8.607323 6.450302 L 6.584279 11.735297 Z M 10.678198 11.737444 " stroke="#522400" stroke-width="0.963222" stroke-opacity="1" stroke-miterlimit="4"/><path stroke-linecap="butt" transform="matrix(0.78615, -0.115045, 0.115045, 0.78615, 164.855926, 75.793677)" fill="none" stroke-linejoin="miter" d="M 5.46103 0.842984 L 5.457376 15.366362 L 11.708106 15.366826 L 11.708231 18.999065 L 1.323253 18.999795 L 1.321917 0.843465 Z M 5.46103 0.842984 " stroke="#522400" stroke-width="0.963222" stroke-opacity="1" stroke-miterlimit="4"/><path stroke-linecap="butt" transform="matrix(0.775471, 0.172948, -0.172948, 0.775471, 204.147046, 75.407479)" fill="none" stroke-linejoin="miter" d="M 0.179168 4.476879 L 0.179059 0.840001 L 12.939597 0.845195 L 12.938636 4.477274 L 8.631442 4.475761 L 8.631325 18.998208 L 4.491045 18.999768 L 4.491162 4.477321 Z M 0.179168 4.476879 " stroke="#522400" stroke-width="0.963222" stroke-opacity="1" stroke-miterlimit="4"/><path stroke-linecap="butt" transform="matrix(0.722051, 0.331524, -0.331524, 0.722051, 226.368153, 81.751233)" fill="none" stroke-linejoin="miter" d="M 11.708996 0.843619 L 11.709374 4.473511 L 5.461536 4.474894 L 5.460593 8.078343 L 11.444366 8.079185 L 11.446796 11.713545 L 5.458554 11.714755 L 5.458202 15.366622 L 11.708092 15.369707 L 11.70847 18.999599 L 1.322532 19.002073 L 1.321007 0.841624 Z M 11.708996 0.843619 " stroke="#522400" stroke-width="0.963222" stroke-opacity="1" stroke-miterlimit="4"/><path stroke-linecap="butt" transform="matrix(0.628453, 0.486121, -0.486121, 0.628453, 246.733289, 92.489562)" fill="none" stroke-linejoin="miter" d="M 17.851467 19.00197 L 12.149654 18.999316 L 5.461888 11.293587 L 5.462528 19.000511 L 1.323392 19.00115 L 1.322518 0.839667 L 5.457765 0.842036 L 5.457023 8.257893 L 11.685656 0.841776 L 16.707897 0.841761 L 9.398519 9.448148 Z M 17.851467 19.00197 " stroke="#522400" stroke-width="0.963222" stroke-opacity="1" stroke-miterlimit="4"/><path stroke-linecap="butt" transform="matrix(0.488778, 0.626388, -0.626388, 0.488778, 266.967203, 110.157077)" fill="none" stroke-linejoin="miter" d="M 5.459295 7.731017 L 5.459203 18.999665 L 1.322662 19.002196 L 1.323702 0.843346 L 5.460243 0.840814 L 12.675916 12.108767 L 12.718171 12.110559 L 12.718263 0.841912 L 16.862556 0.845429 L 16.864541 19.000403 L 12.717223 19.000762 L 5.50155 7.732809 Z M 5.459295 7.731017 " stroke="#522400" stroke-width="0.963222" stroke-opacity="1" stroke-miterlimit="4"/><path stroke-linecap="butt" transform="matrix(0.349413, 0.713567, -0.713567, 0.349413, 282.176998, 132.543447)" fill="none" stroke-linejoin="miter" d="M 1.32283 0.841055 L 5.460958 0.841898 L 5.459913 18.999508 L 1.321785 18.998665 Z M 1.32283 0.841055 " stroke="#522400" stroke-width="0.963222" stroke-opacity="1" stroke-miterlimit="4"/><path stroke-linecap="butt" transform="matrix(0.197755, 0.769519, -0.769519, 0.197755, 289.32397, 149.090805)" fill="none" stroke-linejoin="miter" d="M 17.852712 18.998944 L 12.151618 19.000879 L 5.461286 11.2967 L 5.460797 19.00228 L 1.324217 19.000173 L 1.32057 0.841588 L 5.45715 0.843696 L 5.459747 8.260724 L 11.686507 0.840458 L 16.706697 0.84121 L 9.398965 9.445634 Z M 17.852712 18.998944 " stroke="#522400" stroke-width="0.963222" stroke-opacity="1" stroke-miterlimit="4"/><g fill="#594a47" fill-opacity="1"><g transform="translate(92.884092, 166.191647)"><g><path d="M -4.25 -15.6875 L -1.234375 -14.890625 C 0.335938 -14.085938 1.390625 -12.96875 1.921875 -11.53125 C 2.453125 -10.09375 2.519531 -8.628906 2.125 -7.140625 C 1.632812 -5.253906 0.515625 -3.828125 -1.234375 -2.859375 C -2.984375 -1.898438 -4.859375 -1.679688 -6.859375 -2.203125 C -8.890625 -2.734375 -10.4375 -3.828125 -11.5 -5.484375 C -12.570312 -7.148438 -12.851562 -8.957031 -12.34375 -10.90625 C -11.75 -13.15625 -10.484375 -14.734375 -8.546875 -15.640625 L -6.8125 -12.984375 C -8.195312 -12.546875 -9.066406 -11.660156 -9.421875 -10.328125 C -9.671875 -9.347656 -9.457031 -8.398438 -8.78125 -7.484375 C -8.113281 -6.578125 -7.175781 -5.960938 -5.96875 -5.640625 C -4.789062 -5.335938 -3.6875 -5.421875 -2.65625 -5.890625 C -1.632812 -6.367188 -1 -7.097656 -0.75 -8.078125 C -0.539062 -8.890625 -0.597656 -9.660156 -0.921875 -10.390625 C -1.253906 -11.117188 -1.828125 -11.59375 -2.640625 -11.8125 L -3.484375 -8.609375 L -5.9375 -9.25 Z M -4.25 -15.6875 "/></g></g></g><g fill="#594a47" fill-opacity="1"><g transform="translate(100.215812, 143.439327)"><g><path d="M -10.71875 -10.578125 L -0.53125 -5.1875 L 1.78125 -9.5625 L 4.34375 -8.21875 L 0.484375 -0.921875 L -12.265625 -7.65625 Z M -10.71875 -10.578125 "/></g></g></g><g fill="#594a47" fill-opacity="1"><g transform="translate(109.920749, 126.737708)"><g><path d="M -5.15625 -5.078125 C -6.726562 -6.453125 -7.585938 -8.148438 -7.734375 -10.171875 C -7.890625 -12.191406 -7.304688 -13.953125 -5.984375 -15.453125 C -4.648438 -16.972656 -2.972656 -17.789062 -0.953125 -17.90625 C 1.054688 -18.019531 2.851562 -17.382812 4.4375 -16 C 6.019531 -14.601562 6.890625 -12.90625 7.046875 -10.90625 C 7.210938 -8.914062 6.617188 -7.144531 5.265625 -5.59375 C 3.878906 -4.007812 2.195312 -3.175781 0.21875 -3.09375 C -1.757812 -3.007812 -3.550781 -3.671875 -5.15625 -5.078125 Z M -2.8125 -7.734375 C -2.238281 -7.234375 -1.640625 -6.863281 -1.015625 -6.625 C -0.398438 -6.394531 0.253906 -6.351562 0.953125 -6.5 C 1.660156 -6.65625 2.296875 -7.050781 2.859375 -7.6875 C 3.671875 -8.613281 3.960938 -9.585938 3.734375 -10.609375 C 3.515625 -11.628906 2.960938 -12.53125 2.078125 -13.3125 C 1.191406 -14.082031 0.222656 -14.503906 -0.828125 -14.578125 C -1.878906 -14.660156 -2.800781 -14.253906 -3.59375 -13.359375 C -4.375 -12.460938 -4.660156 -11.492188 -4.453125 -10.453125 C -4.242188 -9.410156 -3.695312 -8.503906 -2.8125 -7.734375 Z M -2.8125 -7.734375 "/></g></g></g><g fill="#594a47" fill-opacity="1"><g transform="translate(127.205727, 109.111038)"><g><path d="M -7.359375 -12.4375 L -3.671875 -15 C -2.566406 -15.757812 -1.519531 -16.132812 -0.53125 -16.125 C 0.457031 -16.113281 1.320312 -15.578125 2.0625 -14.515625 C 2.882812 -13.328125 2.984375 -12.132812 2.359375 -10.9375 C 4.234375 -11.820312 5.757812 -11.414062 6.9375 -9.71875 C 7.632812 -8.726562 7.84375 -7.6875 7.5625 -6.59375 C 7.289062 -5.507812 6.554688 -4.550781 5.359375 -3.71875 L 0.859375 -0.59375 Z M -1.453125 -9.703125 L -1.25 -9.84375 C -0.632812 -10.257812 -0.253906 -10.675781 -0.109375 -11.09375 C 0.0351562 -11.507812 -0.0507812 -11.957031 -0.375 -12.4375 C -0.9375 -13.238281 -1.816406 -13.222656 -3.015625 -12.390625 L -3.21875 -12.25 Z M 2.125 -4.5625 L 2.984375 -5.140625 C 4.296875 -6.054688 4.644531 -6.957031 4.03125 -7.84375 C 3.65625 -8.375 3.222656 -8.632812 2.734375 -8.625 C 2.253906 -8.625 1.6875 -8.394531 1.03125 -7.9375 L 0.171875 -7.359375 Z M 2.125 -4.5625 "/></g></g></g><g fill="#594a47" fill-opacity="1"><g transform="translate(145.050128, 97.922273)"><g><path d="M 2.5625 -16.484375 L 13.234375 -5.15625 L 9.9375 -3.875 L 7.890625 -6.171875 L 2.78125 -4.1875 L 2.84375 -1.109375 L -0.453125 0.171875 L -0.265625 -15.375 Z M 5.8125 -8.453125 L 2.78125 -11.78125 L 2.75 -11.765625 L 2.78125 -7.28125 Z M 5.8125 -8.453125 "/></g></g></g><g fill="#594a47" fill-opacity="1"><g transform="translate(167.04178, 90.73052)"><g><path d="M 2.203125 -14.890625 L 3.875 -3.484375 L 8.78125 -4.203125 L 9.203125 -1.34375 L 1.03125 -0.15625 L -1.0625 -14.421875 Z M 2.203125 -14.890625 "/></g></g></g><g fill="#594a47" fill-opacity="1"><g transform="translate(200.861034, 90.141431)"><g><path d="M 2.65625 -11.234375 L 3.28125 -14.046875 L 13.171875 -11.84375 L 12.546875 -9.03125 L 9.203125 -9.765625 L 6.6875 1.5 L 3.484375 0.78125 L 6 -10.484375 Z M 2.65625 -11.234375 "/></g></g></g><g fill="#594a47" fill-opacity="1"><g transform="translate(220.069188, 95.470208)"><g><path d="M 14.46875 -9.234375 L 13.265625 -6.625 L 8.765625 -8.6875 L 7.578125 -6.0625 L 11.890625 -4.078125 L 10.671875 -1.453125 L 6.359375 -3.4375 L 5.15625 -0.8125 L 9.65625 1.25 L 8.453125 3.875 L 0.953125 0.4375 L 6.96875 -12.671875 Z M 14.46875 -9.234375 "/></g></g></g><g fill="#594a47" fill-opacity="1"><g transform="translate(237.496994, 104.430168)"><g><path d="M 11.21875 8.6875 L 7.640625 5.90625 L 7.1875 -2.1875 L 3.4375 2.65625 L 0.828125 0.640625 L 9.65625 -10.765625 L 12.265625 -8.75 L 8.65625 -4.09375 L 16.171875 -5.734375 L 19.328125 -3.296875 L 10.546875 -1.4375 Z M 11.21875 8.6875 "/></g></g></g><g fill="#594a47" fill-opacity="1"><g transform="translate(255.065825, 119.443864)"><g><path d="M 9.734375 -2.078125 L 2.671875 3.421875 L 0.640625 0.828125 L 12.015625 -8.046875 L 14.046875 -5.453125 L 10.515625 4.59375 L 10.53125 4.609375 L 17.59375 -0.90625 L 19.609375 1.6875 L 8.234375 10.5625 L 6.21875 7.96875 L 9.75 -2.046875 Z M 9.734375 -2.078125 "/></g></g></g><g fill="#594a47" fill-opacity="1"><g transform="translate(268.619231, 139.182285)"><g><path d="M 14.859375 -2.4375 L 1.90625 3.90625 L 0.453125 0.9375 L 13.40625 -5.40625 Z M 14.859375 -2.4375 "/></g></g></g><g fill="#594a47" fill-opacity="1"><g transform="translate(274.703107, 152.848143)"><g><path d="M 3.53125 13.734375 L 2.40625 9.359375 L 7.015625 2.671875 L 1.078125 4.203125 L 0.265625 1.015625 L 14.234375 -2.578125 L 15.046875 0.609375 L 9.34375 2.078125 L 16.28125 5.390625 L 17.265625 9.25 L 9.21875 5.34375 Z M 3.53125 13.734375 "/></g></g></g></svg>